<mxfile host="app.diagrams.net" modified="2024-06-12T15:37:58.230Z" agent="Mozilla/5.0 (Windows NT 10.0; Win64; x64) AppleWebKit/537.36 (KHTML, like Gecko) Chrome/125.0.0.0 Safari/537.36" etag="beiQasZbbLEj1EMpv3Dm" version="24.5.3" type="device">
  <diagram name="Page-1" id="yutKTJsLlQPalype0357">
    <mxGraphModel dx="3475" dy="2523" grid="1" gridSize="10" guides="1" tooltips="1" connect="1" arrows="1" fold="1" page="1" pageScale="1" pageWidth="850" pageHeight="1100" math="0" shadow="0">
      <root>
        <mxCell id="0" />
        <mxCell id="1" parent="0" />
        <mxCell id="drNLDpY8MwPUPVbuaoN--1" value="" style="ellipse;whiteSpace=wrap;html=1;aspect=fixed;fillColor=#d5e8d4;strokeColor=#82b366;" vertex="1" parent="1">
          <mxGeometry x="119" y="-56" width="80" height="80" as="geometry" />
        </mxCell>
        <mxCell id="drNLDpY8MwPUPVbuaoN--2" value="" style="ellipse;whiteSpace=wrap;html=1;aspect=fixed;fillColor=#d5e8d4;strokeColor=#82b366;" vertex="1" parent="1">
          <mxGeometry x="119" y="104" width="80" height="80" as="geometry" />
        </mxCell>
        <mxCell id="drNLDpY8MwPUPVbuaoN--3" value="" style="ellipse;whiteSpace=wrap;html=1;aspect=fixed;fillColor=#d5e8d4;strokeColor=#82b366;" vertex="1" parent="1">
          <mxGeometry x="119" y="309" width="80" height="80" as="geometry" />
        </mxCell>
        <mxCell id="drNLDpY8MwPUPVbuaoN--4" value="" style="ellipse;whiteSpace=wrap;html=1;aspect=fixed;fillColor=#d5e8d4;strokeColor=#82b366;" vertex="1" parent="1">
          <mxGeometry x="119" y="469" width="80" height="80" as="geometry" />
        </mxCell>
        <mxCell id="drNLDpY8MwPUPVbuaoN--5" value="" style="ellipse;whiteSpace=wrap;html=1;aspect=fixed;" vertex="1" parent="1">
          <mxGeometry x="760" y="61" width="80" height="80" as="geometry" />
        </mxCell>
        <mxCell id="drNLDpY8MwPUPVbuaoN--6" value="" style="ellipse;whiteSpace=wrap;html=1;aspect=fixed;" vertex="1" parent="1">
          <mxGeometry x="760" y="221" width="80" height="80" as="geometry" />
        </mxCell>
        <mxCell id="drNLDpY8MwPUPVbuaoN--7" value="" style="ellipse;whiteSpace=wrap;html=1;aspect=fixed;" vertex="1" parent="1">
          <mxGeometry x="760" y="381" width="80" height="80" as="geometry" />
        </mxCell>
        <mxCell id="drNLDpY8MwPUPVbuaoN--11" value="" style="ellipse;whiteSpace=wrap;html=1;aspect=fixed;fillColor=#f8cecc;strokeColor=#b85450;" vertex="1" parent="1">
          <mxGeometry x="1400" y="221" width="80" height="80" as="geometry" />
        </mxCell>
        <mxCell id="drNLDpY8MwPUPVbuaoN--13" value="&lt;span style=&quot;font-family: Helvetica; font-style: normal; font-variant-ligatures: normal; font-variant-caps: normal; font-weight: 400; letter-spacing: normal; orphans: 2; text-indent: 0px; text-transform: none; widows: 2; word-spacing: 0px; -webkit-text-stroke-width: 0px; white-space: nowrap; background-color: rgb(255, 255, 255); text-decoration-thickness: initial; text-decoration-style: initial; text-decoration-color: initial; float: none; display: inline !important;&quot;&gt;&lt;font style=&quot;font-size: 40px;&quot; color=&quot;#009900&quot;&gt;Input layer&lt;/font&gt;&lt;/span&gt;" style="text;whiteSpace=wrap;html=1;align=center;" vertex="1" parent="1">
          <mxGeometry x="34" y="-257" width="250" height="60" as="geometry" />
        </mxCell>
        <mxCell id="drNLDpY8MwPUPVbuaoN--14" value="&lt;span style=&quot;text-wrap: nowrap; background-color: rgb(255, 255, 255);&quot;&gt;&lt;font style=&quot;font-size: 39px;&quot; color=&quot;#ff0000&quot;&gt;Output layer&lt;/font&gt;&lt;/span&gt;" style="text;whiteSpace=wrap;html=1;align=center;" vertex="1" parent="1">
          <mxGeometry x="1315" y="-257" width="250" height="60" as="geometry" />
        </mxCell>
        <mxCell id="drNLDpY8MwPUPVbuaoN--15" value="&lt;span style=&quot;color: rgb(0, 0, 0); font-family: Helvetica; font-size: 30px; font-style: normal; font-variant-ligatures: normal; font-variant-caps: normal; font-weight: 400; letter-spacing: normal; orphans: 2; text-indent: 0px; text-transform: none; widows: 2; word-spacing: 0px; -webkit-text-stroke-width: 0px; white-space: nowrap; background-color: rgb(255, 255, 255); text-decoration-thickness: initial; text-decoration-style: initial; text-decoration-color: initial; float: none; display: inline !important;&quot;&gt;3 neurons&lt;/span&gt;" style="text;whiteSpace=wrap;html=1;align=center;" vertex="1" parent="1">
          <mxGeometry x="675" y="-162" width="250" height="60" as="geometry" />
        </mxCell>
        <mxCell id="drNLDpY8MwPUPVbuaoN--17" style="edgeStyle=orthogonalEdgeStyle;rounded=0;orthogonalLoop=1;jettySize=auto;html=1;exitX=1;exitY=0.5;exitDx=0;exitDy=0;entryX=0;entryY=0.5;entryDx=0;entryDy=0;" edge="1" parent="1" target="drNLDpY8MwPUPVbuaoN--55">
          <mxGeometry relative="1" as="geometry">
            <mxPoint x="1600" y="260.93461538461526" as="targetPoint" />
            <mxPoint x="1480" y="260.55" as="sourcePoint" />
          </mxGeometry>
        </mxCell>
        <mxCell id="drNLDpY8MwPUPVbuaoN--25" value="&lt;span style=&quot;font-family: Helvetica; font-style: normal; font-variant-ligatures: normal; font-variant-caps: normal; font-weight: 400; letter-spacing: normal; orphans: 2; text-indent: 0px; text-transform: none; widows: 2; word-spacing: 0px; -webkit-text-stroke-width: 0px; white-space: nowrap; background-color: rgb(255, 255, 255); text-decoration-thickness: initial; text-decoration-style: initial; text-decoration-color: initial; float: none; display: inline !important;&quot;&gt;&lt;font color=&quot;#330000&quot; style=&quot;font-size: 40px;&quot;&gt;1 Hidden Layer&lt;/font&gt;&lt;/span&gt;" style="text;whiteSpace=wrap;html=1;align=center;" vertex="1" parent="1">
          <mxGeometry x="675" y="-257" width="250" height="60" as="geometry" />
        </mxCell>
        <mxCell id="drNLDpY8MwPUPVbuaoN--26" value="" style="endArrow=classic;html=1;rounded=0;exitX=1;exitY=0.5;exitDx=0;exitDy=0;entryX=0;entryY=0.5;entryDx=0;entryDy=0;" edge="1" parent="1" source="drNLDpY8MwPUPVbuaoN--1" target="drNLDpY8MwPUPVbuaoN--6">
          <mxGeometry width="50" height="50" relative="1" as="geometry">
            <mxPoint x="1050" y="574" as="sourcePoint" />
            <mxPoint x="760" y="-176" as="targetPoint" />
          </mxGeometry>
        </mxCell>
        <mxCell id="drNLDpY8MwPUPVbuaoN--27" value="" style="endArrow=classic;html=1;rounded=0;exitX=1;exitY=0.5;exitDx=0;exitDy=0;entryX=0;entryY=0.5;entryDx=0;entryDy=0;" edge="1" parent="1" source="drNLDpY8MwPUPVbuaoN--1" target="drNLDpY8MwPUPVbuaoN--5">
          <mxGeometry width="50" height="50" relative="1" as="geometry">
            <mxPoint x="800" y="154" as="sourcePoint" />
            <mxPoint x="850" y="104" as="targetPoint" />
          </mxGeometry>
        </mxCell>
        <mxCell id="drNLDpY8MwPUPVbuaoN--28" value="" style="endArrow=classic;html=1;rounded=0;exitX=1;exitY=0.5;exitDx=0;exitDy=0;entryX=0;entryY=0.5;entryDx=0;entryDy=0;" edge="1" parent="1" source="drNLDpY8MwPUPVbuaoN--1" target="drNLDpY8MwPUPVbuaoN--7">
          <mxGeometry width="50" height="50" relative="1" as="geometry">
            <mxPoint x="209" y="-6" as="sourcePoint" />
            <mxPoint x="770" y="-6" as="targetPoint" />
          </mxGeometry>
        </mxCell>
        <mxCell id="drNLDpY8MwPUPVbuaoN--30" value="" style="endArrow=classic;html=1;rounded=0;exitX=1;exitY=0.5;exitDx=0;exitDy=0;entryX=0;entryY=0.5;entryDx=0;entryDy=0;" edge="1" parent="1" source="drNLDpY8MwPUPVbuaoN--2" target="drNLDpY8MwPUPVbuaoN--5">
          <mxGeometry width="50" height="50" relative="1" as="geometry">
            <mxPoint x="209" y="-6" as="sourcePoint" />
            <mxPoint x="430" y="354" as="targetPoint" />
          </mxGeometry>
        </mxCell>
        <mxCell id="drNLDpY8MwPUPVbuaoN--31" value="" style="endArrow=classic;html=1;rounded=0;exitX=1;exitY=0.5;exitDx=0;exitDy=0;entryX=0;entryY=0.5;entryDx=0;entryDy=0;" edge="1" parent="1" source="drNLDpY8MwPUPVbuaoN--2" target="drNLDpY8MwPUPVbuaoN--6">
          <mxGeometry width="50" height="50" relative="1" as="geometry">
            <mxPoint x="209" y="154" as="sourcePoint" />
            <mxPoint x="770" y="-6" as="targetPoint" />
          </mxGeometry>
        </mxCell>
        <mxCell id="drNLDpY8MwPUPVbuaoN--34" value="" style="endArrow=classic;html=1;rounded=0;exitX=1;exitY=0.5;exitDx=0;exitDy=0;entryX=0;entryY=0.5;entryDx=0;entryDy=0;" edge="1" parent="1" source="drNLDpY8MwPUPVbuaoN--3" target="drNLDpY8MwPUPVbuaoN--7">
          <mxGeometry width="50" height="50" relative="1" as="geometry">
            <mxPoint x="209" y="314" as="sourcePoint" />
            <mxPoint x="770" y="474" as="targetPoint" />
          </mxGeometry>
        </mxCell>
        <mxCell id="drNLDpY8MwPUPVbuaoN--35" value="" style="endArrow=classic;html=1;rounded=0;exitX=1;exitY=0.5;exitDx=0;exitDy=0;entryX=0;entryY=0.5;entryDx=0;entryDy=0;" edge="1" parent="1" source="drNLDpY8MwPUPVbuaoN--3" target="drNLDpY8MwPUPVbuaoN--6">
          <mxGeometry width="50" height="50" relative="1" as="geometry">
            <mxPoint x="209" y="314" as="sourcePoint" />
            <mxPoint x="770" y="314" as="targetPoint" />
          </mxGeometry>
        </mxCell>
        <mxCell id="drNLDpY8MwPUPVbuaoN--36" value="" style="endArrow=classic;html=1;rounded=0;exitX=1;exitY=0.5;exitDx=0;exitDy=0;entryX=0;entryY=0.5;entryDx=0;entryDy=0;" edge="1" parent="1" source="drNLDpY8MwPUPVbuaoN--3" target="drNLDpY8MwPUPVbuaoN--5">
          <mxGeometry width="50" height="50" relative="1" as="geometry">
            <mxPoint x="209" y="314" as="sourcePoint" />
            <mxPoint x="770" y="154" as="targetPoint" />
          </mxGeometry>
        </mxCell>
        <mxCell id="drNLDpY8MwPUPVbuaoN--38" value="" style="endArrow=classic;html=1;rounded=0;exitX=1;exitY=0.5;exitDx=0;exitDy=0;entryX=0;entryY=0.5;entryDx=0;entryDy=0;" edge="1" parent="1" source="drNLDpY8MwPUPVbuaoN--4" target="drNLDpY8MwPUPVbuaoN--6">
          <mxGeometry width="50" height="50" relative="1" as="geometry">
            <mxPoint x="209" y="474" as="sourcePoint" />
            <mxPoint x="770" y="-6" as="targetPoint" />
          </mxGeometry>
        </mxCell>
        <mxCell id="drNLDpY8MwPUPVbuaoN--39" value="" style="endArrow=classic;html=1;rounded=0;entryX=0;entryY=0.5;entryDx=0;entryDy=0;exitX=1;exitY=0.5;exitDx=0;exitDy=0;" edge="1" parent="1" source="drNLDpY8MwPUPVbuaoN--4" target="drNLDpY8MwPUPVbuaoN--7">
          <mxGeometry width="50" height="50" relative="1" as="geometry">
            <mxPoint x="230" y="494" as="sourcePoint" />
            <mxPoint x="770" y="154" as="targetPoint" />
          </mxGeometry>
        </mxCell>
        <mxCell id="drNLDpY8MwPUPVbuaoN--41" value="" style="endArrow=classic;html=1;rounded=0;exitX=1;exitY=0.5;exitDx=0;exitDy=0;entryX=0;entryY=0.5;entryDx=0;entryDy=0;" edge="1" parent="1" source="drNLDpY8MwPUPVbuaoN--2" target="drNLDpY8MwPUPVbuaoN--7">
          <mxGeometry width="50" height="50" relative="1" as="geometry">
            <mxPoint x="209" y="154" as="sourcePoint" />
            <mxPoint x="770" y="474" as="targetPoint" />
          </mxGeometry>
        </mxCell>
        <mxCell id="drNLDpY8MwPUPVbuaoN--43" value="" style="endArrow=classic;html=1;rounded=0;exitX=1;exitY=0.5;exitDx=0;exitDy=0;entryX=0;entryY=0.5;entryDx=0;entryDy=0;" edge="1" parent="1" source="drNLDpY8MwPUPVbuaoN--5" target="drNLDpY8MwPUPVbuaoN--11">
          <mxGeometry width="50" height="50" relative="1" as="geometry">
            <mxPoint x="850" y="31" as="sourcePoint" />
            <mxPoint x="1410" y="111" as="targetPoint" />
          </mxGeometry>
        </mxCell>
        <mxCell id="drNLDpY8MwPUPVbuaoN--46" value="" style="endArrow=classic;html=1;rounded=0;exitX=1;exitY=0.5;exitDx=0;exitDy=0;entryX=0;entryY=0.5;entryDx=0;entryDy=0;" edge="1" parent="1" source="drNLDpY8MwPUPVbuaoN--6" target="drNLDpY8MwPUPVbuaoN--11">
          <mxGeometry width="50" height="50" relative="1" as="geometry">
            <mxPoint x="850" y="191" as="sourcePoint" />
            <mxPoint x="1410" y="111" as="targetPoint" />
          </mxGeometry>
        </mxCell>
        <mxCell id="drNLDpY8MwPUPVbuaoN--49" value="" style="endArrow=classic;html=1;rounded=0;exitX=1;exitY=0.5;exitDx=0;exitDy=0;entryX=0;entryY=0.5;entryDx=0;entryDy=0;" edge="1" parent="1" source="drNLDpY8MwPUPVbuaoN--7" target="drNLDpY8MwPUPVbuaoN--11">
          <mxGeometry width="50" height="50" relative="1" as="geometry">
            <mxPoint x="850" y="351" as="sourcePoint" />
            <mxPoint x="1410" y="111" as="targetPoint" />
          </mxGeometry>
        </mxCell>
        <mxCell id="drNLDpY8MwPUPVbuaoN--55" value="&lt;span style=&quot;font-size: 30px;&quot;&gt;Score&lt;/span&gt;&lt;div&gt;&lt;span style=&quot;font-size: 30px;&quot;&gt;(Float number)&lt;/span&gt;&lt;/div&gt;" style="rounded=0;whiteSpace=wrap;html=1;" vertex="1" parent="1">
          <mxGeometry x="1650" y="181" width="180" height="160" as="geometry" />
        </mxCell>
        <mxCell id="drNLDpY8MwPUPVbuaoN--56" value="&lt;font size=&quot;1&quot; style=&quot;&quot;&gt;&lt;b style=&quot;font-size: 25px;&quot;&gt;x1&lt;/b&gt;&lt;/font&gt;" style="text;html=1;align=center;verticalAlign=middle;whiteSpace=wrap;rounded=0;" vertex="1" parent="1">
          <mxGeometry x="-50" y="-31" width="60" height="30" as="geometry" />
        </mxCell>
        <mxCell id="drNLDpY8MwPUPVbuaoN--57" value="&lt;font size=&quot;1&quot; style=&quot;&quot;&gt;&lt;b style=&quot;font-size: 24px;&quot;&gt;x2&lt;/b&gt;&lt;/font&gt;" style="text;html=1;align=center;verticalAlign=middle;whiteSpace=wrap;rounded=0;" vertex="1" parent="1">
          <mxGeometry x="-50" y="129" width="60" height="30" as="geometry" />
        </mxCell>
        <mxCell id="drNLDpY8MwPUPVbuaoN--58" value="&lt;font size=&quot;1&quot; style=&quot;&quot;&gt;&lt;b style=&quot;font-size: 24px;&quot;&gt;x71&lt;/b&gt;&lt;/font&gt;" style="text;html=1;align=center;verticalAlign=middle;whiteSpace=wrap;rounded=0;" vertex="1" parent="1">
          <mxGeometry x="-50" y="334" width="60" height="30" as="geometry" />
        </mxCell>
        <mxCell id="drNLDpY8MwPUPVbuaoN--59" value="&lt;font size=&quot;1&quot; style=&quot;&quot;&gt;&lt;b style=&quot;font-size: 24px;&quot;&gt;x72&lt;/b&gt;&lt;/font&gt;" style="text;html=1;align=center;verticalAlign=middle;whiteSpace=wrap;rounded=0;" vertex="1" parent="1">
          <mxGeometry x="-50" y="494" width="60" height="30" as="geometry" />
        </mxCell>
        <mxCell id="drNLDpY8MwPUPVbuaoN--60" value="" style="endArrow=classic;html=1;rounded=0;exitX=1;exitY=0.5;exitDx=0;exitDy=0;entryX=0;entryY=0.5;entryDx=0;entryDy=0;" edge="1" parent="1" source="drNLDpY8MwPUPVbuaoN--56" target="drNLDpY8MwPUPVbuaoN--1">
          <mxGeometry width="50" height="50" relative="1" as="geometry">
            <mxPoint x="370" y="24" as="sourcePoint" />
            <mxPoint x="420" y="-26" as="targetPoint" />
          </mxGeometry>
        </mxCell>
        <mxCell id="drNLDpY8MwPUPVbuaoN--61" value="" style="endArrow=classic;html=1;rounded=0;exitX=1;exitY=0.5;exitDx=0;exitDy=0;entryX=0;entryY=0.5;entryDx=0;entryDy=0;" edge="1" parent="1">
          <mxGeometry width="50" height="50" relative="1" as="geometry">
            <mxPoint x="10" y="143.44" as="sourcePoint" />
            <mxPoint x="119" y="143.44" as="targetPoint" />
          </mxGeometry>
        </mxCell>
        <mxCell id="drNLDpY8MwPUPVbuaoN--62" value="" style="endArrow=classic;html=1;rounded=0;exitX=1;exitY=0.5;exitDx=0;exitDy=0;entryX=0;entryY=0.5;entryDx=0;entryDy=0;" edge="1" parent="1">
          <mxGeometry width="50" height="50" relative="1" as="geometry">
            <mxPoint x="10" y="349" as="sourcePoint" />
            <mxPoint x="119" y="349" as="targetPoint" />
          </mxGeometry>
        </mxCell>
        <mxCell id="drNLDpY8MwPUPVbuaoN--63" value="" style="endArrow=classic;html=1;rounded=0;exitX=1;exitY=0.5;exitDx=0;exitDy=0;entryX=0;entryY=0.5;entryDx=0;entryDy=0;" edge="1" parent="1">
          <mxGeometry width="50" height="50" relative="1" as="geometry">
            <mxPoint x="10" y="508.44000000000005" as="sourcePoint" />
            <mxPoint x="119" y="508.44000000000005" as="targetPoint" />
          </mxGeometry>
        </mxCell>
        <mxCell id="drNLDpY8MwPUPVbuaoN--64" value="&lt;span style=&quot;font-size: 30px; text-wrap: nowrap; background-color: rgb(255, 255, 255);&quot;&gt;1 neurons&lt;/span&gt;" style="text;whiteSpace=wrap;html=1;align=center;" vertex="1" parent="1">
          <mxGeometry x="1315" y="-170" width="250" height="60" as="geometry" />
        </mxCell>
        <mxCell id="drNLDpY8MwPUPVbuaoN--65" value="&lt;span style=&quot;color: rgb(0, 0, 0); font-family: Helvetica; font-size: 30px; font-style: normal; font-variant-ligatures: normal; font-variant-caps: normal; font-weight: 400; letter-spacing: normal; orphans: 2; text-indent: 0px; text-transform: none; widows: 2; word-spacing: 0px; -webkit-text-stroke-width: 0px; white-space: nowrap; background-color: rgb(255, 255, 255); text-decoration-thickness: initial; text-decoration-style: initial; text-decoration-color: initial; float: none; display: inline !important;&quot;&gt;Take 72 input features&lt;/span&gt;" style="text;whiteSpace=wrap;html=1;align=center;" vertex="1" parent="1">
          <mxGeometry x="34" y="-154" width="250" height="60" as="geometry" />
        </mxCell>
        <mxCell id="drNLDpY8MwPUPVbuaoN--66" value="" style="rounded=0;whiteSpace=wrap;html=1;fillColor=none;strokeWidth=0;" vertex="1" parent="1">
          <mxGeometry x="-130" y="-320" width="2000" height="910" as="geometry" />
        </mxCell>
        <mxCell id="drNLDpY8MwPUPVbuaoN--67" value="&lt;span style=&quot;font-family: Helvetica; font-style: normal; font-variant-ligatures: normal; font-variant-caps: normal; font-weight: 400; letter-spacing: normal; orphans: 2; text-indent: 0px; text-transform: none; widows: 2; word-spacing: 0px; -webkit-text-stroke-width: 0px; white-space: nowrap; background-color: rgb(255, 255, 255); text-decoration-thickness: initial; text-decoration-style: initial; text-decoration-color: initial; float: none; display: inline !important;&quot;&gt;&lt;font color=&quot;#330000&quot; style=&quot;font-size: 40px;&quot;&gt;...&lt;/font&gt;&lt;/span&gt;" style="text;whiteSpace=wrap;html=1;align=center;" vertex="1" parent="1">
          <mxGeometry x="34" y="219" width="250" height="60" as="geometry" />
        </mxCell>
      </root>
    </mxGraphModel>
  </diagram>
</mxfile>
